<svg width="133" height="133" viewBox="0 0 133 133" fill="none" xmlns="http://www.w3.org/2000/svg">
<path d="M45.224 54.4448L40.5321 47.2231C54.0825 38.7406 47.975 24.6456 36.8632 27.2611C28.5687 18.9832 19.7406 26.5091 20.5673 33.9133C9.59652 39.5314 16.9261 57.4281 29.3318 49.916L45.224 54.4448Z" stroke="black" stroke-width="1.84321" stroke-linecap="round" stroke-linejoin="round"/>
<path d="M41.8041 49.1779L102.52 54.7434C100.194 45.7052 96.5752 37.1454 86.7905 36.3546L47.9807 33.2166M58.4677 24.535L81.3797 26.4345M69.9223 25.4834L69.1426 34.928M19.8901 59.6565V66.8451C25.7709 67.6634 30.7559 67.8929 29.7163 76.1542L27.3745 94.778C26.2243 103.913 34.6239 109.067 41.4198 109.067H95.978C102.771 109.067 111.171 103.913 110.023 94.778L107.679 76.1542C106.639 67.8929 111.627 67.6662 117.505 66.8423V59.6565H19.8901Z" stroke="black" stroke-width="1.84321" stroke-linecap="round" stroke-linejoin="round"/>
</svg>
