<svg width="25" height="26" viewBox="0 0 25 26" fill="none" xmlns="http://www.w3.org/2000/svg">
<path d="M12.3735 13.3589H2.8356C2.8356 18.1104 8.81459 22.1957 8.81459 22.1957H12.3735" stroke="#3E5B62" stroke-width="0.5" stroke-linecap="round" stroke-linejoin="round"/>
<path d="M5.61139 14.4447C5.61139 17.9464 9.5441 20.5304 9.5441 20.5304M12.3735 13.3589H21.9114C21.9114 18.1104 15.9324 22.1957 15.9324 22.1957H12.3735M7.26635 13.3589C6.5724 10.761 11.2125 8.97511 15.3762 8.42346L15.7834 7.67383L17.425 9.66906L16.5243 9.81548C16.0835 11.2642 13.8769 13.3589 13.8769 13.3589" stroke="#3E5B62" stroke-width="0.5" stroke-linecap="round" stroke-linejoin="round"/>
<path d="M7.9964 13.359C8.14488 12.0216 9.69569 10.5162 15.6123 8.70911" stroke="#3E5B62" stroke-width="0.5" stroke-linecap="round" stroke-linejoin="round"/>
<path d="M15.7649 8.89523C13.5274 10.0161 10.9186 11.3039 9.09042 13.359M16.2016 9.42471C13.8764 12.583 12.3735 13.359 12.3735 13.359M11.0872 13.359C12.4895 12.5392 15.9799 9.15507 15.9799 9.15507M17.0533 9.22673L21.2556 5.82144C21.3247 5.76559 21.3821 5.69665 21.4245 5.61858C21.4669 5.54051 21.4935 5.45484 21.5028 5.36648C21.512 5.27812 21.5037 5.1888 21.4784 5.10364C21.4531 5.01849 21.4112 4.93917 21.3552 4.87023C21.2993 4.80121 21.2304 4.74388 21.1524 4.70152C21.0743 4.65916 20.9887 4.6326 20.9004 4.62336C20.8121 4.61412 20.7229 4.62238 20.6378 4.64766C20.5527 4.67295 20.4734 4.71477 20.4045 4.77072L16.2016 8.17602" stroke="#3E5B62" stroke-width="0.5" stroke-linecap="round" stroke-linejoin="round"/>
<path d="M15.3767 8.42352L16.5243 9.81554" stroke="#3E5B62" stroke-width="0.5" stroke-linecap="round" stroke-linejoin="round"/>
</svg>
