<svg width="123" height="63" viewBox="0 0 123 63" fill="none" xmlns="http://www.w3.org/2000/svg">
<path d="M1.89815 4.74074H6.19556V21.6874H6.8637L9.38444 6.56296H17.0074L19.5433 21.6874H20.1963V4.74074H24.4937V26H16.0507L13.5604 10.9211H12.8315L10.3411 26H1.89815V4.74074ZM3.55333 6.39593V24.3448H8.83778L11.5863 9.40259H14.7752L17.5389 24.3448H22.8081V6.39593H21.8667V23.3578H18.3133L15.5648 8.43074H10.7967L8.04815 23.3578H4.49481V6.39593H3.55333ZM28.2943 26V3.23741H32.5917V9.88852L32.8802 9.6H39.9717L43.0998 12.7281V26H38.8024V14.8237L37.8761 13.8822H33.8065L32.5917 15.1122V26H28.2943ZM30.0102 24.3448H30.9365V14.4593L33.2598 12.1663H38.8176L40.5032 13.8367V24.3448H41.4446V13.4419L39.2428 11.24H33.032L30.9365 13.3052V4.86222H30.0102V24.3448ZM49.5829 26L46.4548 22.8719V18.5441L49.5829 15.4159H57.8437V14.8237L56.9174 13.8974H46.6674V9.6H59.0129L62.1411 12.7281V22.8719L59.0129 26H49.5829ZM50.9041 23.4033L49.0818 21.6115V19.5463L50.7066 17.9367H59.6659V21.49L57.7222 23.4033H50.9041ZM50.4789 24.3448H58.1474L60.6074 21.8848V13.6089L58.2537 11.2552H48.4441V12.1967H57.8285L59.6659 14.0037V17.0256H50.3574L48.1555 19.197V22.0063L50.4789 24.3448ZM51.6785 21.7026H56.9174L57.8437 20.7763V19.5615H51.3748L50.737 20.1993V20.7763L51.6785 21.7026ZM68.2897 26V13.8822H64.5086V9.6H68.2897V5.43926H72.5871V9.6H76.353V13.8822H72.5871V21.7026H76.2467V26H68.2897ZM69.9752 24.3448H74.6067V23.4033H70.9167V12.1663H74.713V11.24H70.9167V7.09445H69.9752V11.24H66.1637V12.1663H69.9752V24.3448ZM79.2769 11.6956L81.008 4.74074H85.1232L82.7087 11.6956H79.2769ZM81.0687 10.2833H81.6761L83.058 6.48704H82.0558L81.0687 10.2833ZM88.3362 26V21.7026H97.9029L98.8292 20.7763V20.8522L97.9333 19.9411H91.3125L88.1844 16.813V12.7281L91.3125 9.6H102.808V13.8974H93.3929L92.4666 14.8237V14.7326L93.3929 15.6589H99.9833L103.111 18.787V22.8719L99.9833 26H88.3362ZM89.9762 24.2689H99.2088L101.441 22.0519V19.44L99.2088 17.2685H92.3907L90.8114 15.7196V13.8822L92.5122 12.1967H101.168V11.2552H92.1022L89.8699 13.4874V16.0993L91.9655 18.21H98.7837L100.484 19.8196V21.657L98.7837 23.3426H89.9762V24.2689ZM4.72259 56L1.59444 52.8719V37.8689L4.72259 34.7407H14.1526L17.2959 37.8689V42.7585H12.9985V39.9644L12.0722 39.0381H6.81815L5.89185 39.9644V50.7763L6.81815 51.7026H12.0722L12.9985 50.7763V47.9822H17.2959V52.8719L14.1526 56H4.72259ZM5.55778 54.3144H13.3174L15.6256 52.0063V49.4704H14.6841V51.6115L12.8922 53.373H5.98296L4.19111 51.6115V39.0837L5.98296 37.307H12.8922L14.6841 39.0837V41.2248H15.6256V38.6737L13.3174 36.3807H5.55778L3.24963 38.6737V52.0063L5.55778 54.3144ZM23.691 56L20.5629 52.8719V42.7281L23.691 39.6H33.1818L36.3099 42.7281V52.8719L33.1818 56H23.691ZM24.7236 54.3448H32.301L34.6244 52.0063V43.5937L32.301 41.2552H24.6325L22.2788 43.6089V51.8848L24.7236 54.3448ZM25.1488 53.4033L23.2051 51.49V44.0189L25.0577 42.1967H31.8758L33.6829 43.9885V51.6115L31.8758 53.4033H25.1488ZM25.7866 51.7026H31.0862L32.0125 50.7763V44.8237L31.0862 43.8974H25.7866L24.8603 44.8237V50.7763L25.7866 51.7026ZM42.7911 56L39.663 52.8719V42.7281L42.7911 39.6H52.2819L55.41 42.7281V52.8719L52.2819 56H42.7911ZM43.8237 54.3448H51.4011L53.7245 52.0063V43.5937L51.4011 41.2552H43.7326L41.3789 43.6089V51.8848L43.8237 54.3448ZM44.2489 53.4033L42.3052 51.49V44.0189L44.1578 42.1967H50.9759L52.783 43.9885V51.6115L50.9759 53.4033H44.2489ZM44.8867 51.7026H50.1863L51.1126 50.7763V44.8237L50.1863 43.8974H44.8867L43.9604 44.8237V50.7763L44.8867 51.7026ZM58.9909 56V34.7407H63.2883V45.7044H66.3861L68.1931 43.8974V39.6H72.4905V45.7044L70.3494 47.8304L72.4905 50.0019V56H68.1931V51.7937L66.3861 50.0019H63.2883V56H58.9909ZM60.6612 54.3144H61.6027V48.2707H67.2364L69.8483 50.9585V54.3144H70.7898V50.6093L68.102 47.8152L70.7898 45.1274V41.1944H69.8483V44.7781L67.282 47.3293H61.6027V36.3807H60.6612V54.3144ZM79.5011 37.2159V33.2222H84.3907V37.2159H79.5011ZM81.4296 35.6974H82.4622V34.5585H81.4296V35.6974ZM76.054 56V51.7026H80.1085V43.8974H76.054V39.6H84.3907V51.7026H88.4451V56H76.054ZM77.7092 54.3448H86.79V53.4033H82.5837V41.24H77.7092V42.1663H81.6574V53.4033H77.7092V54.3448ZM90.7943 56V42.7281L93.9225 39.6H102.244L105.372 42.7281V56H101.09V44.8237L100.164 43.8974H96.0029L95.0766 44.8237V56H90.7943ZM92.4951 54.3448H93.4214V44.0189L95.274 42.1967H100.953L102.76 43.9885V54.3448H103.702V43.5937L101.363 41.2552H94.8488L92.4951 43.6089V54.3448ZM108.283 41.6956L110.014 34.7407H114.129L111.715 41.6956H108.283ZM110.075 40.2833H110.682L112.064 36.487H111.062L110.075 40.2833Z" fill="black"/>
</svg>
