<svg width="25" height="25" viewBox="0 0 25 25" fill="none" xmlns="http://www.w3.org/2000/svg">
<path d="M22.427 6.57696H18.7207L21.9272 3.37048C21.9631 3.33455 21.9916 3.2919 22.0111 3.24496C22.0305 3.19802 22.0405 3.14771 22.0405 3.09691C22.0405 3.0461 22.0305 2.99579 22.0111 2.94885C21.9916 2.90191 21.9631 2.85926 21.9272 2.82334C21.8913 2.78741 21.8486 2.75891 21.8017 2.73947C21.7548 2.72003 21.7045 2.71002 21.6536 2.71002C21.6028 2.71002 21.5525 2.72003 21.5056 2.73947C21.4586 2.75891 21.416 2.78741 21.3801 2.82334L18.1736 6.02982V2.32356C18.1736 2.22101 18.1329 2.12266 18.0603 2.05014C17.9878 1.97763 17.8895 1.93689 17.7869 1.93689C17.6844 1.93689 17.586 1.97763 17.5135 2.05014C17.441 2.12266 17.4002 2.22101 17.4002 2.32356V6.19028C16.284 5.35313 14.9033 4.94645 13.5115 5.04481C12.1196 5.14318 10.8099 5.74 9.82244 6.72583C8.16748 8.34888 6.48642 11.1455 4.8247 15.0393C3.67145 17.746 2.92904 20.066 2.83431 20.3647C2.74738 20.5413 2.70664 20.7371 2.71588 20.9338C2.72513 21.1304 2.78405 21.3215 2.88716 21.4892C2.99027 21.6569 3.13419 21.7957 3.30549 21.8927C3.47679 21.9897 3.66988 22.0417 3.86672 22.0438C4.04669 22.0434 4.22408 22.001 4.38486 21.9201C4.68647 21.8234 7.00747 21.0839 9.7103 19.9297C13.6051 18.267 16.4036 16.584 18.0238 14.931C19.0105 13.9435 19.608 12.6333 19.7065 11.2408C19.8051 9.84826 19.3981 8.46692 18.5603 7.3503H22.427C22.5295 7.3503 22.6279 7.30956 22.7004 7.23705C22.7729 7.16453 22.8137 7.06618 22.8137 6.96363C22.8137 6.86108 22.7729 6.76273 22.7004 6.69021C22.6279 6.6177 22.5295 6.57696 22.427 6.57696ZM17.4718 14.3868C16.5283 15.3535 15.2078 16.2612 13.7626 17.0848L11.1004 14.4235C11.0268 14.3569 10.9305 14.321 10.8312 14.3235C10.732 14.3259 10.6375 14.3664 10.5673 14.4366C10.4972 14.5068 10.4566 14.6013 10.4542 14.7005C10.4518 14.7998 10.4876 14.8961 10.5542 14.9697L13.0579 17.4743C8.95243 19.6803 4.18959 21.1738 4.12192 21.1912C4.09826 21.1989 4.0753 21.2086 4.05329 21.2202C3.98017 21.2591 3.89649 21.2735 3.81457 21.2613C3.73266 21.2491 3.65684 21.2108 3.59827 21.1523C3.53971 21.0937 3.5015 21.0179 3.48926 20.936C3.47703 20.8541 3.49142 20.7704 3.53032 20.6973C3.54193 20.6753 3.55163 20.6523 3.55932 20.6286C3.58735 20.532 6.43229 11.4452 10.096 7.55234L13.6476 11.103C13.7201 11.1753 13.8183 11.2159 13.9207 11.2159C14.0231 11.2159 14.1213 11.1753 14.1938 11.103C14.2661 11.0305 14.3067 10.9323 14.3067 10.8299C14.3067 10.7275 14.2661 10.6293 14.1938 10.5568L10.6509 7.0139C11.639 6.17596 12.9125 5.75191 14.2058 5.83021C15.499 5.9085 16.712 6.4831 17.5919 7.43412C18.4717 8.38515 18.9503 9.63916 18.928 10.9346C18.9056 12.23 18.3839 13.4667 17.4718 14.3868Z" fill="#3E5B62"/>
</svg>
